<?xml version="1.0" standalone="no"?>
<!DOCTYPE svg PUBLIC "-//W3C//DTD SVG 20010904//EN"
 "http://www.w3.org/TR/2001/REC-SVG-20010904/DTD/svg10.dtd">
<svg version="1.0" xmlns="http://www.w3.org/2000/svg"
 width="800.000000pt" height="800.000000pt" viewBox="0 0 800.000000 800.000000"
 preserveAspectRatio="xMidYMid meet">
<metadata>
Created by potrace 1.14, written by Peter Selinger 2001-2017
</metadata>
<g transform="translate(0.000000,800.000000) scale(0.100000,-0.100000)"
fill="#000000" stroke="none">
<path d="M2549 7955 c-186 -37 -338 -128 -445 -270 -96 -127 -135 -250 -130
-415 3 -116 23 -188 78 -293 33 -61 181 -227 204 -227 18 0 176 -161 225 -230
48 -67 113 -195 124 -245 2 -5 7 -28 13 -50 21 -80 31 -235 18 -295 -2 -14 -7
-42 -10 -63 -4 -21 -11 -47 -16 -58 -6 -10 -9 -19 -6 -19 9 0 -58 -149 -86
-195 -56 -89 -166 -206 -263 -280 -38 -30 -86 -71 -106 -92 -35 -37 -124 -163
-122 -173 0 -3 -4 -16 -9 -30 -5 -14 -9 -26 -9 -27 0 -2 -6 -20 -13 -41 -23
-65 -35 -198 -22 -257 2 -11 7 -40 11 -65 8 -54 83 -213 120 -255 66 -75 107
-115 135 -132 17 -9 30 -21 30 -25 0 -4 6 -8 13 -8 10 0 140 -129 172 -171 80
-106 153 -259 169 -355 2 -16 5 -29 6 -29 1 0 3 -20 5 -45 2 -25 4 -47 5 -50
1 -3 2 -8 2 -11 -1 -3 -2 -30 -3 -60 -4 -118 -35 -232 -95 -352 -18 -37 -43
-77 -54 -89 -11 -12 -20 -26 -20 -30 0 -17 -121 -143 -189 -198 -103 -83 -125
-102 -145 -128 -11 -15 -27 -34 -34 -42 -46 -53 -105 -178 -118 -249 -4 -20
-8 -45 -11 -56 -2 -11 -4 -56 -3 -100 1 -301 219 -560 545 -646 54 -14 234
-18 300 -7 157 28 299 106 408 227 145 159 238 233 375 301 190 93 380 117
619 77 77 -13 295 -105 323 -136 3 -4 24 -19 47 -35 46 -31 119 -102 227 -220
39 -42 76 -76 83 -76 7 0 13 -4 13 -9 0 -8 143 -83 195 -102 63 -23 138 -33
250 -32 132 0 249 33 370 102 63 37 225 191 225 215 0 8 4 16 8 18 9 3 48 84
69 143 21 60 28 111 26 210 -3 200 -94 380 -257 506 -98 76 -205 184 -255 258
-48 70 -108 186 -115 222 -3 13 -10 40 -16 59 -30 94 -32 281 -4 390 3 14 8
37 11 53 3 15 10 27 15 27 5 0 7 4 4 8 -8 13 71 161 124 232 47 63 172 190
187 190 23 0 147 123 193 190 54 80 68 110 93 207 17 63 23 110 21 168 -2 80
-5 98 -23 165 -21 76 -25 86 -43 112 -10 14 -18 29 -18 33 0 29 -117 157 -195
213 -50 36 -145 85 -187 97 -5 2 -10 4 -13 5 -3 1 -8 3 -12 4 -5 1 -17 5 -28
8 -45 15 -105 21 -195 21 -144 -1 -195 -11 -305 -63 -97 -45 -175 -102 -235
-172 -80 -93 -201 -208 -219 -208 -6 0 -11 -4 -11 -9 0 -5 -13 -14 -30 -21
-16 -7 -30 -15 -30 -19 0 -15 -215 -103 -280 -116 -19 -3 -46 -8 -60 -11 -38
-8 -264 -13 -275 -6 -5 3 -21 7 -35 8 -32 3 -81 14 -92 20 -5 3 -21 8 -35 10
-91 17 -283 129 -386 226 -30 29 -115 109 -188 178 -196 185 -221 212 -269
280 -13 19 -27 37 -30 40 -25 24 -104 212 -115 277 -29 167 -26 254 10 391 45
172 191 379 350 497 87 65 218 217 226 263 1 4 9 23 19 42 10 19 18 38 19 43
1 4 1 8 2 10 1 3 7 29 17 67 10 41 10 220 -1 237 -4 6 -4 18 -1 26 3 8 1 18
-5 22 -6 3 -11 13 -11 22 0 8 -18 52 -39 97 -62 129 -164 235 -293 304 -56 31
-160 69 -208 78 -63 11 -221 10 -281 -1z m1700 -3254 c46 -12 100 -29 120 -38
20 -9 38 -17 41 -18 23 -6 120 -60 120 -67 0 -4 5 -8 11 -8 10 0 154 -109 218
-165 263 -232 377 -364 454 -527 61 -128 81 -215 81 -353 -1 -100 -7 -192 -15
-202 -1 -2 -2 -6 -4 -10 -12 -44 -60 -160 -77 -188 -10 -16 -24 -42 -30 -57
-7 -16 -16 -28 -20 -28 -4 0 -8 -5 -8 -11 0 -28 -196 -243 -316 -346 -69 -59
-138 -120 -150 -130 -7 -7 -17 -13 -23 -13 -6 0 -11 -4 -11 -8 0 -13 -138
-105 -210 -140 -68 -33 -174 -69 -225 -78 -107 -17 -137 -20 -200 -18 -131 2
-283 34 -375 78 -143 69 -345 223 -513 390 -114 113 -227 244 -227 262 0 6 -6
14 -12 17 -7 3 -22 22 -33 43 -10 22 -28 51 -38 67 -10 15 -15 27 -11 27 3 0
2 6 -4 13 -12 15 -48 130 -58 189 -15 82 -7 248 15 331 30 113 96 247 167 334
49 62 300 313 382 382 148 126 316 230 417 256 17 5 37 10 45 12 8 3 24 6 35
8 11 2 20 4 20 5 0 3 53 11 120 18 94 9 212 -1 314 -27z"/>
<path d="M830 4169 c-25 -3 -48 -5 -52 -2 -5 2 -8 -1 -8 -7 0 -6 -4 -9 -9 -6
-4 3 -23 1 -42 -5 -19 -5 -42 -12 -51 -14 -18 -4 -149 -66 -158 -75 -3 -3 -23
-19 -45 -35 -165 -122 -262 -318 -262 -525 0 -173 62 -324 187 -451 139 -142
292 -209 490 -215 79 -2 134 2 175 12 33 8 67 16 75 18 75 18 207 96 276 162
133 127 206 297 206 479 0 85 -2 96 -28 183 -41 144 -136 271 -265 358 -56 37
-129 75 -149 79 -3 0 -9 3 -15 6 -5 4 -26 10 -45 15 -19 4 -42 9 -50 11 -61
15 -171 21 -230 12z"/>
<path d="M6977 4174 c-1 -1 -24 -4 -52 -7 -27 -3 -60 -9 -72 -12 -13 -3 -31
-7 -41 -9 -43 -10 -151 -61 -206 -99 -190 -129 -299 -338 -292 -557 5 -133 17
-185 70 -285 34 -66 33 -64 78 -119 45 -53 92 -96 141 -128 23 -15 47 -31 52
-36 18 -14 124 -54 193 -72 96 -26 281 -21 377 9 184 59 328 173 418 331 49
87 81 211 79 305 -2 85 -4 101 -13 140 -15 60 -63 185 -71 185 -5 0 -8 5 -8
11 0 11 -39 64 -90 123 -29 33 -119 102 -170 130 -33 18 -177 74 -193 74 -4 1
-26 3 -50 6 -46 7 -146 13 -150 10z"/>
<path d="M3850 1375 c-167 -34 -301 -109 -408 -232 -44 -49 -123 -184 -124
-210 0 -4 -5 -19 -10 -33 -17 -42 -23 -91 -22 -185 0 -110 12 -180 40 -234 8
-14 14 -31 14 -37 0 -6 8 -22 19 -35 10 -13 20 -28 21 -34 5 -20 56 -81 110
-134 175 -170 438 -235 689 -171 50 13 91 27 91 32 0 4 7 8 14 8 26 0 129 67
192 123 317 288 281 782 -76 1026 -123 84 -238 121 -390 126 -52 2 -124 -3
-160 -10z"/>
</g>
</svg>
