<svg width="32" height="33" viewBox="0 0 32 33" fill="none" xmlns="http://www.w3.org/2000/svg">
<g clip-path="url(#clip0_182_20546)">
<path d="M14.4599 21.9818C14.4599 23.575 13.7822 25.1028 12.576 26.2293C11.3698 27.3558 9.73372 27.9886 8.02782 27.9886C6.32192 27.9886 4.68588 27.3558 3.47962 26.2293C2.27337 25.1028 1.5957 23.575 1.5957 21.9818C1.5957 16.8774 7.10482 10.8706 8.02782 10.8706C8.95081 10.8706 14.4599 16.8774 14.4599 21.9818Z" stroke="black" stroke-width="1.5" stroke-linecap="round" stroke-linejoin="round"/>
<path d="M10.8761 21.3438C10.8761 22.1357 10.5761 22.8954 10.042 23.4554C9.50793 24.0154 8.78359 24.33 8.02832 24.33" stroke="black" stroke-width="1.5" stroke-linecap="round" stroke-linejoin="round"/>
<path d="M29.1868 7.45508H19.7793V26.7009C19.7793 29.2988 21.8853 31.4047 24.483 31.4047C27.0809 31.4047 29.1868 29.2988 29.1868 26.7009V7.45508Z" stroke="black" stroke-width="1.5" stroke-linejoin="round"/>
<path d="M30.834 1.59521H18.1318V7.45494H30.834V1.59521Z" stroke="black" stroke-width="1.5" stroke-linejoin="round"/>
<path d="M22.3066 1.625V7.45511" stroke="black" stroke-width="1.5" stroke-linecap="round" stroke-linejoin="round"/>
<path d="M26.6592 1.625V7.45511" stroke="black" stroke-width="1.5" stroke-linecap="round" stroke-linejoin="round"/>
<path d="M20.0879 14.8638C23.866 14.8638 25.8622 17.3576 28.9987 17.3576" stroke="black" stroke-width="1.5" stroke-linecap="round" stroke-linejoin="round"/>
</g>
<defs>
<clipPath id="clip0_182_20546">
<rect width="32" height="32" fill="white" transform="translate(0 0.5)"/>
</clipPath>
</defs>
</svg>
