<svg width="33" height="33" viewBox="0 0 33 33" fill="none" xmlns="http://www.w3.org/2000/svg">
<path d="M31.0151 11.6401V17.1548C31.0151 22.4694 24.5162 26.7776 16.4993 26.7776C8.48238 26.7776 1.9834 22.4694 1.9834 17.1548V11.6401" stroke="#232222" stroke-width="1.5" stroke-linecap="round" stroke-linejoin="round"/>
<path d="M16.4993 21.2296C24.5162 21.2296 31.0151 16.9213 31.0151 11.6067C31.0151 6.29217 24.5162 1.98389 16.4993 1.98389C8.48238 1.98389 1.9834 6.29217 1.9834 11.6067C1.9834 16.9213 8.48238 21.2296 16.4993 21.2296Z" stroke="#232222" stroke-width="1.5" stroke-linecap="round" stroke-linejoin="round"/>
<path d="M30.7458 13.8008C29.4406 9.37473 23.5586 6.03467 16.4998 6.03467C9.44101 6.03467 3.559 9.37473 2.25391 13.8008" stroke="#232222" stroke-width="1.5" stroke-linecap="round" stroke-linejoin="round"/>
<path d="M8.91413 15.3401C9.99609 15.3401 10.8732 14.6511 10.8732 13.8009C10.8732 12.9509 9.99609 12.2617 8.91413 12.2617C7.83218 12.2617 6.95508 12.9509 6.95508 13.8009C6.95508 14.6511 7.83218 15.3401 8.91413 15.3401Z" stroke="#232222" stroke-width="1.5" stroke-linecap="round" stroke-linejoin="round"/>
<path d="M17.8583 13.3724C17.5998 13.4341 17.3224 13.4676 17.0338 13.4676C15.635 13.4676 14.501 12.6814 14.501 11.7116C14.501 10.7418 15.635 9.95557 17.0338 9.95557C17.7571 9.95557 18.4095 10.1658 18.8711 10.5029C19.4778 10.1607 20.2518 9.95557 21.095 9.95557C23.0424 9.95557 24.6212 11.0502 24.6212 12.4004C24.6212 13.7506 23.0424 14.8452 21.095 14.8452C19.6456 14.8452 18.4006 14.2391 17.8583 13.3724Z" stroke="#232222" stroke-width="1.5" stroke-linecap="round" stroke-linejoin="round"/>
<path d="M12.748 17.0604C15.4872 16.0128 15.9382 19.4461 18.5834 17.9352" stroke="#232222" stroke-width="1.5" stroke-linecap="round"/>
</svg>
