<svg width="33" height="33" viewBox="0 0 33 33" fill="none" xmlns="http://www.w3.org/2000/svg">
<g clip-path="url(#clip0_182_20506)">
<path d="M22.5 31.5C24.0823 31.5 25.629 31.0308 26.9446 30.1518C28.2602 29.2727 29.2855 28.0233 29.891 26.5615C30.4965 25.0997 30.655 23.4911 30.3463 21.9393C30.0376 20.3874 29.2757 18.962 28.1569 17.8431C27.038 16.7243 25.6126 15.9624 24.0607 15.6537C22.5089 15.345 20.9003 15.5035 19.4385 16.109C17.9767 16.7145 16.7273 17.7398 15.8482 19.0554C14.9692 20.371 14.5 21.9178 14.5 23.5C14.5 25.6217 15.3429 27.6566 16.8431 29.1569C18.3434 30.6571 20.3783 31.5 22.5 31.5Z" stroke="#232222" stroke-width="1.5" stroke-linecap="round" stroke-linejoin="round"/>
<path d="M25.9226 21.1802L22.2039 26.3455C22.1234 26.4594 22.0188 26.5542 21.8976 26.6233C21.7765 26.6924 21.6416 26.7341 21.5026 26.7455C21.3644 26.7551 21.2258 26.734 21.0967 26.6837C20.9677 26.6335 20.8513 26.5553 20.7559 26.4548L18.8359 24.4548" stroke="#232222" stroke-width="1.5" stroke-linecap="round" stroke-linejoin="round"/>
<path d="M12.7587 30.9613C11.9963 31.3469 11.1479 31.5308 10.2943 31.4954C9.44067 31.4601 8.61035 31.2066 7.88251 30.7593C7.15466 30.3119 6.55354 29.6856 6.13647 28.94C5.71939 28.1944 5.50027 27.3543 5.5 26.5V1.5H15.5V13.8547" stroke="#232222" stroke-width="1.5" stroke-linecap="round" stroke-linejoin="round"/>
<path d="M18.5 1.5H2.5" stroke="#232222" stroke-width="1.5" stroke-linecap="round" stroke-linejoin="round"/>
<path d="M12 11.5C12.1326 11.5 12.2598 11.5527 12.3536 11.6464C12.4473 11.7402 12.5 11.8674 12.5 12" stroke="#232222" stroke-width="1.5" stroke-linecap="round" stroke-linejoin="round"/>
<path d="M11.5 12C11.5 11.8674 11.5527 11.7402 11.6464 11.6464C11.7402 11.5527 11.8674 11.5 12 11.5" stroke="#232222" stroke-width="1.5" stroke-linecap="round" stroke-linejoin="round"/>
<path d="M12 12.5C11.8674 12.5 11.7402 12.4473 11.6464 12.3536C11.5527 12.2598 11.5 12.1326 11.5 12" stroke="#232222" stroke-width="1.5" stroke-linecap="round" stroke-linejoin="round"/>
<path d="M12.5 12C12.5 12.1326 12.4473 12.2598 12.3536 12.3536C12.2598 12.4473 12.1326 12.5 12 12.5" stroke="#232222" stroke-width="1.5" stroke-linecap="round" stroke-linejoin="round"/>
<path d="M9 17.5C9.13261 17.5 9.25978 17.5527 9.35355 17.6464C9.44732 17.7402 9.5 17.8674 9.5 18" stroke="#232222" stroke-width="1.5" stroke-linecap="round" stroke-linejoin="round"/>
<path d="M8.5 18C8.5 17.8674 8.55268 17.7402 8.64645 17.6464C8.74022 17.5527 8.86739 17.5 9 17.5" stroke="#232222" stroke-width="1.5" stroke-linecap="round" stroke-linejoin="round"/>
<path d="M9 18.5C8.86739 18.5 8.74022 18.4473 8.64645 18.3536C8.55268 18.2598 8.5 18.1326 8.5 18" stroke="#232222" stroke-width="1.5" stroke-linecap="round" stroke-linejoin="round"/>
<path d="M9.5 18C9.5 18.1326 9.44732 18.2598 9.35355 18.3536C9.25978 18.4473 9.13261 18.5 9 18.5" stroke="#232222" stroke-width="1.5" stroke-linecap="round" stroke-linejoin="round"/>
<path d="M11 23.5C11.1326 23.5 11.2598 23.5527 11.3536 23.6464C11.4473 23.7402 11.5 23.8674 11.5 24" stroke="#232222" stroke-width="1.5" stroke-linecap="round" stroke-linejoin="round"/>
<path d="M10.5 24C10.5 23.8674 10.5527 23.7402 10.6464 23.6464C10.7402 23.5527 10.8674 23.5 11 23.5" stroke="#232222" stroke-width="1.5" stroke-linecap="round" stroke-linejoin="round"/>
<path d="M11 24.5C10.8674 24.5 10.7402 24.4473 10.6464 24.3536C10.5527 24.2598 10.5 24.1326 10.5 24" stroke="#232222" stroke-width="1.5" stroke-linecap="round" stroke-linejoin="round"/>
<path d="M11.5 24C11.5 24.1326 11.4473 24.2598 11.3536 24.3536C11.2598 24.4473 11.1326 24.5 11 24.5" stroke="#232222" stroke-width="1.5" stroke-linecap="round" stroke-linejoin="round"/>
<path d="M15.5 7.5H5.5" stroke="#232222" stroke-width="1.5" stroke-linecap="round" stroke-linejoin="round"/>
</g>
<defs>
<clipPath id="clip0_182_20506">
<rect width="32" height="32" fill="white" transform="translate(0.5 0.5)"/>
</clipPath>
</defs>
</svg>
